<svg id="Layer_1" data-name="Layer 1" xmlns="http://www.w3.org/2000/svg" xmlns:xlink="http://www.w3.org/1999/xlink" viewBox="0 0 100 100"><defs><style>.cls-1{fill:url(#radial-gradient);}.cls-2{fill:#603913;}</style><radialGradient id="radial-gradient" cx="50" cy="50" r="50" gradientUnits="userSpaceOnUse"><stop offset="0" stop-color="#e8d095"/><stop offset="0.38" stop-color="#ddc389"/><stop offset="1" stop-color="#c4a46e"/></radialGradient></defs><rect class="cls-1" width="100" height="100"/><path class="cls-2" d="M36.35,72.54l-2.67-1a28.79,28.79,0,0,1,.4-9c.06-.14.1-.26.14-.33.55.27,1.11.52,1.63.76a15.64,15.64,0,0,0,4.83,1.7c2,.15,2.06-1.42,2.12-3,0-.84.22-1.63,1.1-1.94.45-.16.71-.1,1.07-.43a.92.92,0,0,0,.19-.83c-.06-.5-.55-.61.09-.55s.9-.6.91-1.08c0-.7-.79-1,.43-1.77.31-.21.68-.32,1-.54a.73.73,0,0,0,.1-1c-.54-1-1.2-1.81-1.66-2.81-.11-.31-.21-.61-.3-.88s0-.26-.05-.38a2.1,2.1,0,0,0,1.88-1,2,2,0,0,1-1.86,0,12.86,12.86,0,0,1,.48-1.95,13.37,13.37,0,0,0,.54-3.88c0-1.36-1.12-7.68-4.8-11.36-.06-.05-1.58-1.41-1.74-1.52a31.81,31.81,0,0,0-11.9-5c-.13,0,3.27-1,3.13-1s-1-.89-1.08-.9S28,24.61,27.86,24.6s2.32-2.82,2.16-2.84S28.9,21,28.59,21.3c-.88.91-.91,3.08-1,3C21,14.33,11.68,20.68,8,28.11,4.8,34.59,10.07,39.8,13.18,41.47c.08,3.44.94,4.63,4.05,8.84,1.94,2.64,2.43,6,2.75,9.33.05.51-.07,3.65-.4,7.17-.65-.15-.93,5.3-.89,5"/><path class="cls-2" d="M86.06,41.34c1,.42,2.12-.37,2.76-1a3.6,3.6,0,0,0,.72-4.5,5.29,5.29,0,0,0-4.64-2.72c-1.4,0-2.63,1.45-.67,1.93-.63-.91.13-1.32,1-.43a2.17,2.17,0,0,1,.32,1.65c-.14,1.28-1.82,1.77-2.88,2a18.32,18.32,0,0,1-3.81-.14c-2-.14-5.11,2-5.18,4.51a1.77,1.77,0,0,0-2,1.58,7,7,0,0,0-1-.58,19.38,19.38,0,0,0-9-1.18c-2.35.17-7.41.79-7.28,3.3a10.24,10.24,0,0,0-3.25,3.48,7.86,7.86,0,0,0-.41,5c.25,1.3.32,2.44-.37,3.14-.38.39-1.71,1.3-1.71,1.68,0,.81.92,1.09.88,1.34a5.71,5.71,0,0,1-.76,1.22.82.82,0,0,0,.11.87,4.32,4.32,0,0,0,.52.48s-.42.17-.47.53a.89.89,0,0,0,.44,1.09c.31.21.39.2.39.54s-.95,2.2,1.32,2.73,5.48.31,5.92,1.46a30.66,30.66,0,0,1,.54,4.27c0,.1-.39.28-.38.37a9.4,9.4,0,0,1,.21,1.47c-.1.7-.7,5.23-1.06,8.22,6-.93,9-6.68,14-9-.84-3.57-.82-2.66-.82-2.66a3.89,3.89,0,0,0-.33-1.13c-.18-.2-.83,0-.83,0l-.09-.36s-.09-2.28,3.42-4.2a13.51,13.51,0,0,0,6.21-11.32c0-2.75-.4-4.3-.89-5.17l.07,0c1-.52.84-2.2.63-3.25,0-.1-.06-.2-.1-.3A1.54,1.54,0,0,1,79,45.79a2.94,2.94,0,0,1,1.3.81c1,1.07,2.66,1.92,3.68.86a1.9,1.9,0,0,1-.84-1.14c1.22.74,3.46.37,4.6-.25a3.64,3.64,0,0,0,2-4.45A4.26,4.26,0,0,1,86.06,41.34Z"/><path class="cls-2" d="M13.18,41.47c.08,3.44.94,4.63,4.05,8.84,1.94,2.64,2.43,6,2.75,9.33.05.51-.07,3.65-.4,7.17-.65-.15-.93,5.3-.89,5,8,4.84,12.45,12,23.61,12.52-1.21-3.5-4-10.93-5.95-11.78l-2.67-1a28.79,28.79,0,0,1,.4-9c.06-.14.1-.26.14-.33.55.27,1.11.52,1.63.76a15.64,15.64,0,0,0,4.83,1.7c2,.15,2.06-1.42,2.12-3,0-.84.22-1.63,1.1-1.94.45-.16.71-.1,1.07-.43a.92.92,0,0,0,.19-.83c-.06-.5-.55-.61.09-.55s.9-.6.91-1.08c0-.7-.79-1,.43-1.77.31-.21.68-.32,1-.54a.73.73,0,0,0,.1-1c-.54-1-1.2-1.81-1.66-2.81-.11-.31-.21-.61-.3-.88s0-.26-.05-.38a2.1,2.1,0,0,0,1.88-1,2,2,0,0,1-1.86,0,12.86,12.86,0,0,1,.48-1.95,13.37,13.37,0,0,0,.54-3.88c0-1.36-1.12-7.68-4.8-11.36-.06-.05-1.58-1.41-1.74-1.52a31.81,31.81,0,0,0-11.9-5c-.13,0,3.27-1,3.13-1s-1-.89-1.08-.9S28,24.61,27.86,24.6s2.32-2.82,2.16-2.84S28.9,21,28.59,21.3c-.88.91-.91,3.08-1,3C21,14.33,11.68,20.68,8,28.11,4.8,34.59,10.07,39.8,13.18,41.47Z"/><path class="cls-2" d="M86.06,41.34c1,.42,2.12-.37,2.76-1a3.6,3.6,0,0,0,.72-4.5,5.29,5.29,0,0,0-4.64-2.72c-1.4,0-2.63,1.45-.67,1.93-.63-.91.13-1.32,1-.43a2.17,2.17,0,0,1,.32,1.65c-.14,1.28-1.82,1.77-2.88,2a18.32,18.32,0,0,1-3.81-.14c-2-.14-5.11,2-5.18,4.51a1.77,1.77,0,0,0-2,1.58,7,7,0,0,0-1-.58,19.38,19.38,0,0,0-9-1.18c-2.35.17-7.41.79-7.28,3.3a10.24,10.24,0,0,0-3.25,3.48,7.86,7.86,0,0,0-.41,5c.25,1.3.32,2.44-.37,3.14-.38.39-1.71,1.3-1.71,1.68,0,.81.92,1.09.88,1.34a5.71,5.71,0,0,1-.76,1.22.82.82,0,0,0,.11.87,4.32,4.32,0,0,0,.52.48s-.42.17-.47.53a.89.89,0,0,0,.44,1.09c.31.21.39.2.39.54s-.95,2.2,1.32,2.73,5.48.31,5.92,1.46a30.66,30.66,0,0,1,.54,4.27c0,.1-.39.28-.38.37a9.4,9.4,0,0,1,.21,1.47c-.1.7-.7,5.23-1.06,8.22,6-.93,9-6.68,14-9-.84-3.57-.82-2.66-.82-2.66a3.89,3.89,0,0,0-.33-1.13c-.18-.2-.83,0-.83,0l-.09-.36s-.09-2.28,3.42-4.2a13.51,13.51,0,0,0,6.21-11.32c0-2.75-.4-4.3-.89-5.17l.07,0c1-.52.84-2.2.63-3.25,0-.1-.06-.2-.1-.3A1.54,1.54,0,0,1,79,45.79a2.94,2.94,0,0,1,1.3.81c1,1.07,2.66,1.92,3.68.86a1.9,1.9,0,0,1-.84-1.14c1.22.74,3.46.37,4.6-.25a3.64,3.64,0,0,0,2-4.45A4.26,4.26,0,0,1,86.06,41.34Z"/><path class="cls-2" d="M94.29,75.29l.71.3a20.13,20.13,0,0,1-6,9A15.5,15.5,0,0,1,78.65,88a26.57,26.57,0,0,1-6.7-.84q-3.23-.84-7.92-2.57a37.51,37.51,0,0,1-9,2.65,52.27,52.27,0,0,1-8.46.76A45.56,45.56,0,0,1,28.2,84.51,37.59,37.59,0,0,1,15,75.21a38.4,38.4,0,0,1-7.59-12.3A36,36,0,0,1,5,50.38,37.15,37.15,0,0,1,7.85,36.12a38.24,38.24,0,0,1,8.3-12.43,39.13,39.13,0,0,1,13-8.61A43.47,43.47,0,0,1,45.8,12a45.07,45.07,0,0,1,18.84,3.64,37.6,37.6,0,0,1,13,9.37,39.35,39.35,0,0,1,7.44,12.43,37.18,37.18,0,0,1,2.44,12.76,35.8,35.8,0,0,1-3.38,14.95,39,39,0,0,1-9.35,12.81,21.48,21.48,0,0,0,9,2,15.4,15.4,0,0,0,6.42-1.29A9.07,9.07,0,0,0,94.29,75.29ZM43.81,14v-.5a34,34,0,0,0-13.75,3.08,39.79,39.79,0,0,0-11.94,8.15A38.51,38.51,0,0,0,10,36.43,33.06,33.06,0,0,0,7,50.18,33.4,33.4,0,0,0,9.71,63.34,37.58,37.58,0,0,0,17.5,75a39.14,39.14,0,0,0,11.9,8.31A37.8,37.8,0,0,0,44.22,86.6v-.67a37.56,37.56,0,0,1-14-3.87,34.12,34.12,0,0,1-10.6-8.25,35.46,35.46,0,0,1-6.47-11.05A36.07,36.07,0,0,1,11,50.48a37.74,37.74,0,0,1,4-17.24A34.71,34.71,0,0,1,26.54,20.08,36.35,36.35,0,0,1,43.81,14ZM67.39,75a25.51,25.51,0,0,0,3.77-5.45,35.62,35.62,0,0,0,3.11-8.17A40.19,40.19,0,0,0,75.49,51.3a57.15,57.15,0,0,0-1.17-12.48,31.2,31.2,0,0,0-3.26-8.74,32.73,32.73,0,0,0-5.25-6.74Q58,15.54,46.1,15.54a27.15,27.15,0,0,0-14.56,4.13,29.23,29.23,0,0,0-10.67,12,39.86,39.86,0,0,0-4,18.31,42.58,42.58,0,0,0,1.91,13.45,32.86,32.86,0,0,0,4.61,9.37,27.08,27.08,0,0,0,5.29,5.55,31.88,31.88,0,0,1,8.08-7,19.08,19.08,0,0,1,9.45-2.21Q53.89,69.18,67.39,75ZM29.3,79a29.58,29.58,0,0,0,17.31,5.65,24.4,24.4,0,0,0,10.85-2.39q-12.89-6.06-19.3-6.07A13.48,13.48,0,0,0,29.3,79ZM60,81l3.66-2.39Q59.3,76.72,57,75.75c-1.51-.65-2.85-1.17-4-1.58a27.7,27.7,0,0,0-4-1,23.79,23.79,0,0,0-4.45-.43,21,21,0,0,0-10.09,2.39l.1.51a17.65,17.65,0,0,1,5.71-.91A24,24,0,0,1,48,76.1Q52.21,77.53,60,81ZM48.8,13.46V14a41,41,0,0,1,10.34,2.7,28.6,28.6,0,0,1,9.15,6.07A29.19,29.19,0,0,1,75,33.7a48.65,48.65,0,0,1,2.57,16.78A41.41,41.41,0,0,1,70.42,74.6Q63.27,85,48.4,85.93v.67a31.64,31.64,0,0,0,11.23-2.19,34.17,34.17,0,0,0,10.77-6.7,33.44,33.44,0,0,0,8.07-11.44,38.89,38.89,0,0,0,3.08-16A42.13,42.13,0,0,0,78.7,34.21,32.31,32.31,0,0,0,71,22.75,33,33,0,0,0,60.39,16,36.33,36.33,0,0,0,48.8,13.46ZM70.5,81.25l-3.87,2.19a29.06,29.06,0,0,0,12.53,2.8,15.32,15.32,0,0,0,12.33-5.6h-.67a13.93,13.93,0,0,1-9,3.1A33.89,33.89,0,0,1,70.5,81.25Z"/></svg>